<svg width="221" height="130" viewBox="0 0 221 130" fill="none" xmlns="http://www.w3.org/2000/svg">
<g filter="url(#filter0_d_3_151)">
<path d="M110.58 51.4545C110.153 47.8561 108.425 45.0625 105.395 43.0739C102.365 41.0852 98.6477 40.0909 94.2443 40.0909C91.0246 40.0909 88.2074 40.6117 85.7926 41.6534C83.4015 42.6951 81.5313 44.1274 80.1818 45.9503C78.8561 47.7732 78.1932 49.8447 78.1932 52.1648C78.1932 54.1061 78.6548 55.7751 79.5781 57.1719C80.5251 58.545 81.7325 59.6932 83.2003 60.6165C84.6681 61.5161 86.2069 62.2618 87.8168 62.8537C89.4266 63.4219 90.9062 63.8835 92.2557 64.2386L99.642 66.2273C101.536 66.7244 103.643 67.411 105.963 68.2869C108.307 69.1629 110.544 70.3584 112.675 71.8736C114.829 73.3651 116.605 75.2827 118.001 77.6264C119.398 79.9702 120.097 82.8466 120.097 86.2557C120.097 90.1856 119.067 93.7367 117.007 96.9091C114.971 100.081 111.988 102.603 108.058 104.473C104.152 106.343 99.4053 107.278 93.8182 107.278C88.6098 107.278 84.0999 106.438 80.2884 104.757C76.5005 103.076 73.5175 100.732 71.3395 97.7259C69.1851 94.7192 67.9659 91.2273 67.6818 87.25H76.7727C77.0095 89.9962 77.9328 92.2689 79.5426 94.0682C81.1761 95.8437 83.2358 97.1695 85.7216 98.0455C88.2311 98.8977 90.9299 99.3239 93.8182 99.3239C97.1799 99.3239 100.198 98.7794 102.874 97.6903C105.549 96.5777 107.668 95.0388 109.23 93.0739C110.793 91.0852 111.574 88.7652 111.574 86.1136C111.574 83.6989 110.899 81.7339 109.55 80.2188C108.2 78.7036 106.425 77.4725 104.223 76.5256C102.021 75.5786 99.642 74.75 97.0852 74.0398L88.1364 71.483C82.4545 69.8494 77.9564 67.5175 74.642 64.4872C71.3277 61.4569 69.6705 57.4915 69.6705 52.5909C69.6705 48.5189 70.7713 44.9678 72.973 41.9375C75.1984 38.8835 78.1813 36.5161 81.9219 34.8352C85.6861 33.1307 89.8883 32.2784 94.5284 32.2784C99.2159 32.2784 103.383 33.1188 107.028 34.7997C110.674 36.4569 113.563 38.7296 115.693 41.6179C117.848 44.5062 118.984 47.785 119.102 51.4545H110.58ZM133.795 89.5938V106H129.605V69.6364H133.795V82.9886H134.15C134.789 81.58 135.748 80.4614 137.027 79.6328C138.317 78.7924 140.033 78.3722 142.176 78.3722C144.034 78.3722 145.662 78.745 147.059 79.4908C148.455 80.2247 149.538 81.3551 150.308 82.8821C151.089 84.3973 151.48 86.3267 151.48 88.6705V106H147.289V88.9545C147.289 86.7884 146.727 85.1134 145.603 83.9297C144.49 82.7341 142.945 82.1364 140.968 82.1364C139.595 82.1364 138.364 82.4264 137.275 83.0064C136.198 83.5864 135.346 84.4328 134.718 85.5455C134.103 86.6581 133.795 88.0076 133.795 89.5938ZM170.225 106.568C167.763 106.568 165.603 105.982 163.744 104.81C161.898 103.638 160.454 101.999 159.412 99.892C158.382 97.785 157.867 95.3229 157.867 92.5057C157.867 89.6648 158.382 87.1849 159.412 85.0661C160.454 82.9472 161.898 81.3018 163.744 80.13C165.603 78.9581 167.763 78.3722 170.225 78.3722C172.687 78.3722 174.842 78.9581 176.688 80.13C178.547 81.3018 179.991 82.9472 181.021 85.0661C182.062 87.1849 182.583 89.6648 182.583 92.5057C182.583 95.3229 182.062 97.785 181.021 99.892C179.991 101.999 178.547 103.638 176.688 104.81C174.842 105.982 172.687 106.568 170.225 106.568ZM170.225 102.804C172.096 102.804 173.634 102.325 174.842 101.366C176.049 100.407 176.943 99.1463 177.523 97.5838C178.103 96.0213 178.393 94.3286 178.393 92.5057C178.393 90.6828 178.103 88.9841 177.523 87.4098C176.943 85.8355 176.049 84.563 174.842 83.5923C173.634 82.6217 172.096 82.1364 170.225 82.1364C168.355 82.1364 166.816 82.6217 165.609 83.5923C164.401 84.563 163.508 85.8355 162.928 87.4098C162.348 88.9841 162.058 90.6828 162.058 92.5057C162.058 94.3286 162.348 96.0213 162.928 97.5838C163.508 99.1463 164.401 100.407 165.609 101.366C166.816 102.325 168.355 102.804 170.225 102.804ZM188.98 116.227V78.7273H193.028V83.0597H193.525C193.833 82.5862 194.259 81.9825 194.804 81.2486C195.36 80.5028 196.153 79.84 197.183 79.2599C198.225 78.6681 199.633 78.3722 201.409 78.3722C203.705 78.3722 205.729 78.9463 207.481 80.0945C209.233 81.2427 210.6 82.8703 211.583 84.9773C212.565 87.0843 213.056 89.5701 213.056 92.4347C213.056 95.3229 212.565 97.8265 211.583 99.9453C210.6 102.052 209.239 103.686 207.499 104.846C205.759 105.994 203.752 106.568 201.48 106.568C199.728 106.568 198.325 106.278 197.272 105.698C196.218 105.106 195.407 104.437 194.839 103.692C194.271 102.934 193.833 102.307 193.525 101.81H193.17V116.227H188.98ZM193.099 92.3636C193.099 94.4233 193.401 96.2403 194.005 97.8146C194.608 99.3771 195.49 100.602 196.65 101.49C197.81 102.366 199.231 102.804 200.912 102.804C202.663 102.804 204.125 102.342 205.297 101.419C206.481 100.484 207.369 99.2292 207.961 97.6548C208.564 96.0687 208.866 94.3049 208.866 92.3636C208.866 90.446 208.57 88.7178 207.978 87.179C207.398 85.6283 206.516 84.4032 205.333 83.5036C204.161 82.5921 202.687 82.1364 200.912 82.1364C199.207 82.1364 197.775 82.5684 196.615 83.4325C195.455 84.2848 194.579 85.4804 193.987 87.0192C193.395 88.5462 193.099 90.3277 193.099 92.3636Z" fill="black"/>
</g>
<path d="M73.7279 39.3844L73.2114 39.1965L78.3595 25.0522C79.1497 22.8811 79.0451 20.485 78.0687 18.391C77.0923 16.2971 75.324 14.6767 73.1529 13.8865L43.1861 2.97951C41.015 2.18929 38.6189 2.29391 36.525 3.27034C34.431 4.24677 32.8107 6.01503 32.0205 8.18613L3.77749 85.7831C2.98728 87.9542 3.09189 90.3503 4.06832 92.4443C5.04475 94.5382 6.81301 96.1585 8.98411 96.9488L38.9508 107.856C41.1218 108.646 43.5179 108.541 45.6119 107.565C47.7059 106.588 49.3262 104.82 50.1164 102.649L69.5468 49.2646L70.0632 49.4526L73.7279 39.3844Z" fill="black"/>
<path d="M72.7081 16.1363L68.7964 14.7126C68.8159 15.2191 68.7104 15.7227 68.4894 16.1789C68.2683 16.6351 67.9385 17.03 67.5289 17.3286C67.1193 17.6273 66.6425 17.8207 66.1406 17.8916C65.6386 17.9626 65.1269 17.9091 64.6506 17.7357L47.4831 11.4872C47.0068 11.3138 46.5804 11.0259 46.2416 10.649C45.9028 10.272 45.6619 9.81745 45.5401 9.32543C45.4183 8.8334 45.4194 8.31898 45.5432 7.82747C45.6671 7.33597 45.9099 6.88247 46.2503 6.50691L42.5963 5.17695C40.9749 4.5868 39.1854 4.66493 37.6216 5.39414C36.0578 6.12335 34.8478 7.44392 34.2576 9.06532L6.05622 86.5481C5.46608 88.1695 5.54421 89.9589 6.27342 91.5227C7.00263 93.0865 8.3232 94.2966 9.9446 94.8867L40.0551 105.846C41.6765 106.436 43.4659 106.358 45.0297 105.629C46.5935 104.9 47.8036 103.579 48.3937 101.958L76.5953 24.4745C77.1854 22.8531 77.1073 21.0637 76.3781 19.4999C75.6489 17.9361 74.3283 16.726 72.7069 16.1359L72.7081 16.1363Z" fill="white"/>
<path d="M26.6281 96.0554C28.4822 96.7302 30.5323 95.7742 31.2071 93.9202C31.8819 92.0661 30.926 90.016 29.0719 89.3412C27.2178 88.6664 25.1678 89.6223 24.4929 91.4764C23.8181 93.3305 24.7741 95.3806 26.6281 96.0554Z" fill="#E6E6E6"/>
<path d="M25.531 56.6951C25.2137 56.5796 24.8482 56.7803 24.7163 57.1425C24.5845 57.5047 24.7355 57.8935 25.0528 58.009L52.1861 67.8847C52.5035 68.0002 52.869 67.7994 53.0008 67.4372C53.1326 67.075 52.9817 66.6863 52.6643 66.5708L25.531 56.6951Z" fill="#E6E6E6"/>
<path d="M19.8915 72.1893C19.5742 72.0738 19.2087 72.2746 19.0769 72.6368C18.945 72.999 19.096 73.3877 19.4133 73.5032L46.5467 83.379C46.864 83.4945 47.2295 83.2937 47.3613 82.9315C47.4932 82.5693 47.3422 82.1806 47.0249 82.0651L19.8915 72.1893Z" fill="#E6E6E6"/>
<path d="M24.0963 60.6367C23.779 60.5212 23.4135 60.722 23.2817 61.0842C23.1498 61.4464 23.3008 61.8351 23.6181 61.9506L35.2937 66.2002C35.611 66.3157 35.9765 66.1149 36.1083 65.7527C36.2402 65.3905 36.0892 65.0018 35.7719 64.8863L24.0963 60.6367Z" fill="#E6E6E6"/>
<path d="M22.7288 64.3939C22.4115 64.2784 22.046 64.4791 21.9142 64.8413C21.7824 65.2035 21.9333 65.5923 22.2506 65.7078L49.384 75.5835C49.7013 75.699 50.0668 75.4982 50.1986 75.136C50.3305 74.7738 50.1795 74.3851 49.8622 74.2696L22.7288 64.3939Z" fill="#E6E6E6"/>
<path d="M21.2942 68.3356C20.9769 68.2201 20.6114 68.4208 20.4796 68.783C20.3477 69.1452 20.4987 69.534 20.816 69.6495L32.4916 73.899C32.8089 74.0145 33.1744 73.8138 33.3062 73.4516C33.4381 73.0894 33.2871 72.7006 32.9698 72.5851L21.2942 68.3356Z" fill="#E6E6E6"/>
<path d="M73.7279 39.3844L73.2114 39.1965L78.3595 25.0522C79.1497 22.8811 79.0451 20.485 78.0687 18.391C77.0923 16.2971 75.324 14.6767 73.1529 13.8865L43.1861 2.97951C41.015 2.18929 38.6189 2.29391 36.525 3.27034C34.431 4.24677 32.8107 6.01503 32.0205 8.18613L3.77749 85.7831C2.98728 87.9542 3.09189 90.3503 4.06832 92.4443C5.04475 94.5382 6.81301 96.1585 8.98411 96.9488L38.9508 107.856C41.1218 108.646 43.5179 108.541 45.6119 107.565C47.7059 106.588 49.3262 104.82 50.1164 102.649L69.5468 49.2646L70.0632 49.4526L73.7279 39.3844Z" fill="black"/>
<path d="M72.7081 16.1363L68.7964 14.7126C68.8159 15.2191 68.7104 15.7227 68.4894 16.1789C68.2683 16.6351 67.9385 17.03 67.5289 17.3286C67.1193 17.6273 66.6425 17.8207 66.1406 17.8916C65.6386 17.9626 65.1269 17.9091 64.6506 17.7357L47.4831 11.4872C47.0068 11.3138 46.5804 11.0259 46.2416 10.649C45.9028 10.272 45.6619 9.81745 45.5401 9.32543C45.4183 8.8334 45.4194 8.31898 45.5432 7.82747C45.6671 7.33597 45.9099 6.88247 46.2503 6.50691L42.5963 5.17695C40.9749 4.5868 39.1854 4.66493 37.6216 5.39414C36.0578 6.12335 34.8478 7.44392 34.2576 9.06532L6.05622 86.5481C5.46608 88.1695 5.54421 89.9589 6.27342 91.5227C7.00263 93.0865 8.3232 94.2966 9.9446 94.8867L40.0551 105.846C41.6765 106.436 43.4659 106.358 45.0297 105.629C46.5935 104.9 47.8036 103.579 48.3937 101.958L76.5953 24.4745C77.1854 22.8531 77.1073 21.0637 76.3781 19.4999C75.6489 17.9361 74.3283 16.726 72.7069 16.1359L72.7081 16.1363Z" fill="white"/>
<path d="M26.6281 96.0554C28.4822 96.7302 30.5323 95.7742 31.2071 93.9202C31.8819 92.0661 30.926 90.016 29.0719 89.3412C27.2178 88.6664 25.1678 89.6223 24.4929 91.4764C23.8181 93.3305 24.7741 95.3806 26.6281 96.0554Z" fill="#E6E6E6"/>
<path d="M25.531 56.6951C25.2137 56.5796 24.8482 56.7803 24.7163 57.1425C24.5845 57.5047 24.7355 57.8935 25.0528 58.009L52.1861 67.8847C52.5035 68.0002 52.869 67.7994 53.0008 67.4372C53.1326 67.075 52.9817 66.6863 52.6643 66.5708L25.531 56.6951Z" fill="#E6E6E6"/>
<path d="M19.8915 72.1893C19.5742 72.0738 19.2087 72.2746 19.0769 72.6368C18.945 72.999 19.096 73.3877 19.4133 73.5032L46.5467 83.379C46.864 83.4945 47.2295 83.2937 47.3613 82.9315C47.4932 82.5693 47.3422 82.1806 47.0249 82.0651L19.8915 72.1893Z" fill="#E6E6E6"/>
<path d="M24.0963 60.6367C23.779 60.5212 23.4135 60.722 23.2817 61.0842C23.1498 61.4464 23.3008 61.8351 23.6181 61.9506L35.2937 66.2002C35.611 66.3157 35.9765 66.1149 36.1083 65.7527C36.2402 65.3905 36.0892 65.0018 35.7719 64.8863L24.0963 60.6367Z" fill="#E6E6E6"/>
<path d="M22.7288 64.3939C22.4115 64.2784 22.046 64.4791 21.9142 64.8413C21.7824 65.2035 21.9333 65.5923 22.2506 65.7078L49.384 75.5835C49.7013 75.699 50.0668 75.4982 50.1986 75.136C50.3305 74.7738 50.1795 74.3851 49.8622 74.2696L22.7288 64.3939Z" fill="#E6E6E6"/>
<path d="M21.2942 68.3356C20.9769 68.2201 20.6114 68.4208 20.4796 68.783C20.3477 69.1452 20.4987 69.534 20.816 69.6495L32.4916 73.899C32.8089 74.0145 33.1744 73.8138 33.3062 73.4516C33.4381 73.0894 33.2871 72.7006 32.9698 72.5851L21.2942 68.3356Z" fill="#E6E6E6"/>
<path d="M60.85 38C60.85 44.5389 55.3265 49.85 48.5 49.85C41.6735 49.85 36.15 44.5389 36.15 38C36.15 31.4611 41.6735 26.15 48.5 26.15C55.3265 26.15 60.85 31.4611 60.85 38Z" fill="#FD7E14" stroke="black" stroke-width="0.3"/>
<path d="M43.6546 39.2069L44.0399 38.1909L51.2546 32.6796L51.9989 32.9397L51.4021 34.5136L50.8993 34.3379L45.448 38.5024L45.4177 38.5821L51.5124 40.7116L51.0969 41.8074L43.6546 39.2069ZM47.7091 42.9927L48.6193 40.5919L48.7987 40.1188L51.5765 32.7921L52.7632 33.2067L48.8958 43.4073L47.7091 42.9927Z" fill="white"/>
<defs>
<filter id="filter0_d_3_151" x="64.6818" y="29.2784" width="155.375" height="93.9489" filterUnits="userSpaceOnUse" color-interpolation-filters="sRGB">
<feFlood flood-opacity="0" result="BackgroundImageFix"/>
<feColorMatrix in="SourceAlpha" type="matrix" values="0 0 0 0 0 0 0 0 0 0 0 0 0 0 0 0 0 0 127 0" result="hardAlpha"/>
<feOffset dx="2" dy="2"/>
<feGaussianBlur stdDeviation="2.5"/>
<feComposite in2="hardAlpha" operator="out"/>
<feColorMatrix type="matrix" values="0 0 0 0 0 0 0 0 0 0 0 0 0 0 0 0 0 0 0.25 0"/>
<feBlend mode="normal" in2="BackgroundImageFix" result="effect1_dropShadow_3_151"/>
<feBlend mode="normal" in="SourceGraphic" in2="effect1_dropShadow_3_151" result="shape"/>
</filter>
</defs>
</svg>
