<svg width="150" height="150" viewBox="0 0 150 150" fill="none" xmlns="http://www.w3.org/2000/svg">
<circle cx="75" cy="75" r="75" fill="#FD7E14"/>
<g filter="url(#filter0_d_3_150)">
<path d="M121.58 69.4545C121.153 65.8561 119.425 63.0625 116.395 61.0739C113.365 59.0852 109.648 58.0909 105.244 58.0909C102.025 58.0909 99.2074 58.6117 96.7926 59.6534C94.4015 60.6951 92.5313 62.1274 91.1818 63.9503C89.8561 65.7732 89.1932 67.8447 89.1932 70.1648C89.1932 72.1061 89.6548 73.7751 90.5781 75.1719C91.5251 76.545 92.7325 77.6932 94.2003 78.6165C95.6681 79.5161 97.2069 80.2618 98.8168 80.8537C100.427 81.4219 101.906 81.8835 103.256 82.2386L110.642 84.2273C112.536 84.7244 114.643 85.411 116.963 86.2869C119.307 87.1629 121.544 88.3584 123.675 89.8736C125.829 91.3651 127.605 93.2827 129.001 95.6264C130.398 97.9702 131.097 100.847 131.097 104.256C131.097 108.186 130.067 111.737 128.007 114.909C125.971 118.081 122.988 120.603 119.058 122.473C115.152 124.343 110.405 125.278 104.818 125.278C99.6098 125.278 95.0999 124.438 91.2884 122.757C87.5005 121.076 84.5175 118.732 82.3395 115.726C80.1851 112.719 78.9659 109.227 78.6818 105.25H87.7727C88.0095 107.996 88.9328 110.269 90.5426 112.068C92.1761 113.844 94.2358 115.17 96.7216 116.045C99.2311 116.898 101.93 117.324 104.818 117.324C108.18 117.324 111.198 116.779 113.874 115.69C116.549 114.578 118.668 113.039 120.23 111.074C121.793 109.085 122.574 106.765 122.574 104.114C122.574 101.699 121.899 99.7339 120.55 98.2188C119.2 96.7036 117.425 95.4725 115.223 94.5256C113.021 93.5786 110.642 92.75 108.085 92.0398L99.1364 89.483C93.4545 87.8494 88.9564 85.5175 85.642 82.4872C82.3277 79.4569 80.6705 75.4915 80.6705 70.5909C80.6705 66.5189 81.7713 62.9678 83.973 59.9375C86.1984 56.8835 89.1813 54.5161 92.9219 52.8352C96.6861 51.1307 100.888 50.2784 105.528 50.2784C110.216 50.2784 114.383 51.1188 118.028 52.7997C121.674 54.4569 124.563 56.7296 126.693 59.6179C128.848 62.5062 129.984 65.785 130.102 69.4545H121.58Z" fill="black"/>
</g>
<path d="M85.9299 54.3844L85.4134 54.1965L90.5615 40.0522C91.3518 37.8811 91.2471 35.485 90.2707 33.391C89.2943 31.2971 87.526 29.6767 85.3549 28.8865L55.3881 17.9795C53.217 17.1893 50.821 17.2939 48.727 18.2703C46.633 19.2468 45.0127 21.015 44.2225 23.1861L15.9795 100.783C15.1893 102.954 15.2939 105.35 16.2703 107.444C17.2468 109.538 19.015 111.159 21.1861 111.949L51.1528 122.856C53.3239 123.646 55.7199 123.541 57.8139 122.565C59.9079 121.588 61.5282 119.82 62.3184 117.649L81.7488 64.2646L82.2653 64.4526L85.9299 54.3844Z" fill="black"/>
<path d="M84.9101 31.1363L80.9985 29.7126C81.0179 30.2191 80.9125 30.7227 80.6914 31.1789C80.4704 31.6351 80.1405 32.03 79.7309 32.3286C79.3213 32.6273 78.8445 32.8207 78.3426 32.8916C77.8406 32.9626 77.329 32.9091 76.8526 32.7357L59.6851 26.4872C59.2088 26.3138 58.7825 26.0259 58.4436 25.649C58.1048 25.272 57.8639 24.8174 57.7421 24.3254C57.6203 23.8334 57.6214 23.319 57.7453 22.8275C57.8691 22.336 58.112 21.8825 58.4524 21.5069L54.7983 20.1769C53.1769 19.5868 51.3875 19.6649 49.8237 20.3941C48.2599 21.1234 47.0498 22.4439 46.4597 24.0653L18.2582 101.548C17.6681 103.169 17.7462 104.959 18.4754 106.523C19.2047 108.086 20.5252 109.297 22.1466 109.887L52.2571 120.846C53.8785 121.436 55.668 121.358 57.2318 120.629C58.7956 119.9 60.0056 118.579 60.5958 116.958L88.7973 39.4745C89.3875 37.8531 89.3093 36.0637 88.5801 34.4999C87.8509 32.9361 86.5303 31.726 84.9089 31.1359L84.9101 31.1363Z" fill="white"/>
<path d="M38.8302 111.055C40.6842 111.73 42.7343 110.774 43.4091 108.92C44.0839 107.066 43.128 105.016 41.2739 104.341C39.4198 103.666 37.3698 104.622 36.6949 106.476C36.0201 108.33 36.9761 110.381 38.8302 111.055Z" fill="#E6E6E6"/>
<path d="M37.733 71.6951C37.4157 71.5796 37.0502 71.7803 36.9183 72.1425C36.7865 72.5047 36.9375 72.8935 37.2548 73.009L64.3881 82.8847C64.7055 83.0002 65.071 82.7994 65.2028 82.4372C65.3346 82.075 65.1837 81.6863 64.8663 81.5708L37.733 71.6951Z" fill="#E6E6E6"/>
<path d="M32.0935 87.1893C31.7762 87.0738 31.4107 87.2746 31.2789 87.6368C31.1471 87.999 31.298 88.3877 31.6153 88.5032L58.7487 98.379C59.066 98.4945 59.4315 98.2937 59.5633 97.9315C59.6952 97.5693 59.5442 97.1806 59.2269 97.0651L32.0935 87.1893Z" fill="#E6E6E6"/>
<path d="M36.2984 75.6367C35.981 75.5212 35.6155 75.722 35.4837 76.0842C35.3519 76.4464 35.5028 76.8351 35.8201 76.9506L47.4957 81.2002C47.813 81.3157 48.1785 81.1149 48.3104 80.7527C48.4422 80.3905 48.2912 80.0018 47.9739 79.8863L36.2984 75.6367Z" fill="#E6E6E6"/>
<path d="M34.9309 79.3939C34.6135 79.2784 34.248 79.4791 34.1162 79.8413C33.9844 80.2035 34.1353 80.5923 34.4526 80.7078L61.586 90.5835C61.9033 90.699 62.2688 90.4982 62.4007 90.136C62.5325 89.7738 62.3815 89.3851 62.0642 89.2696L34.9309 79.3939Z" fill="#E6E6E6"/>
<path d="M33.4962 83.3356C33.1789 83.2201 32.8134 83.4208 32.6815 83.783C32.5497 84.1452 32.7007 84.534 33.018 84.6495L44.6936 88.899C45.0109 89.0145 45.3764 88.8138 45.5082 88.4516C45.6401 88.0894 45.4891 87.7006 45.1718 87.5851L33.4962 83.3356Z" fill="#E6E6E6"/>
<path d="M85.9299 54.3844L85.4134 54.1965L90.5615 40.0522C91.3518 37.8811 91.2471 35.485 90.2707 33.391C89.2943 31.2971 87.526 29.6767 85.3549 28.8865L55.3881 17.9795C53.217 17.1893 50.821 17.2939 48.727 18.2703C46.633 19.2468 45.0127 21.015 44.2225 23.1861L15.9795 100.783C15.1893 102.954 15.2939 105.35 16.2703 107.444C17.2468 109.538 19.015 111.159 21.1861 111.949L51.1528 122.856C53.3239 123.646 55.7199 123.541 57.8139 122.565C59.9079 121.588 61.5282 119.82 62.3184 117.649L81.7488 64.2646L82.2653 64.4526L85.9299 54.3844Z" fill="black"/>
<path d="M84.9101 31.1363L80.9985 29.7126C81.0179 30.2191 80.9125 30.7227 80.6914 31.1789C80.4704 31.6351 80.1405 32.03 79.7309 32.3286C79.3213 32.6273 78.8445 32.8207 78.3426 32.8916C77.8406 32.9626 77.329 32.9091 76.8526 32.7357L59.6851 26.4872C59.2088 26.3138 58.7825 26.0259 58.4436 25.649C58.1048 25.272 57.8639 24.8174 57.7421 24.3254C57.6203 23.8334 57.6214 23.319 57.7453 22.8275C57.8691 22.336 58.112 21.8825 58.4524 21.5069L54.7983 20.1769C53.1769 19.5868 51.3875 19.6649 49.8237 20.3941C48.2599 21.1234 47.0498 22.4439 46.4597 24.0653L18.2582 101.548C17.6681 103.169 17.7462 104.959 18.4754 106.523C19.2047 108.086 20.5252 109.297 22.1466 109.887L52.2571 120.846C53.8785 121.436 55.668 121.358 57.2318 120.629C58.7956 119.9 60.0056 118.579 60.5958 116.958L88.7973 39.4745C89.3875 37.8531 89.3093 36.0637 88.5801 34.4999C87.8509 32.9361 86.5303 31.726 84.9089 31.1359L84.9101 31.1363Z" fill="white"/>
<path d="M38.8302 111.055C40.6842 111.73 42.7343 110.774 43.4091 108.92C44.0839 107.066 43.128 105.016 41.2739 104.341C39.4198 103.666 37.3698 104.622 36.6949 106.476C36.0201 108.33 36.9761 110.381 38.8302 111.055Z" fill="#E6E6E6"/>
<path d="M37.733 71.6951C37.4157 71.5796 37.0502 71.7803 36.9183 72.1425C36.7865 72.5047 36.9375 72.8935 37.2548 73.009L64.3881 82.8847C64.7055 83.0002 65.071 82.7994 65.2028 82.4372C65.3346 82.075 65.1837 81.6863 64.8663 81.5708L37.733 71.6951Z" fill="#E6E6E6"/>
<path d="M32.0935 87.1893C31.7762 87.0738 31.4107 87.2746 31.2789 87.6368C31.1471 87.999 31.298 88.3877 31.6153 88.5032L58.7487 98.379C59.066 98.4945 59.4315 98.2937 59.5633 97.9315C59.6952 97.5693 59.5442 97.1806 59.2269 97.0651L32.0935 87.1893Z" fill="#E6E6E6"/>
<path d="M36.2984 75.6367C35.981 75.5212 35.6155 75.722 35.4837 76.0842C35.3519 76.4464 35.5028 76.8351 35.8201 76.9506L47.4957 81.2002C47.813 81.3157 48.1785 81.1149 48.3104 80.7527C48.4422 80.3905 48.2912 80.0018 47.9739 79.8863L36.2984 75.6367Z" fill="#E6E6E6"/>
<path d="M34.9309 79.3939C34.6135 79.2784 34.248 79.4791 34.1162 79.8413C33.9844 80.2035 34.1353 80.5923 34.4526 80.7078L61.586 90.5835C61.9033 90.699 62.2688 90.4982 62.4007 90.136C62.5325 89.7738 62.3815 89.3851 62.0642 89.2696L34.9309 79.3939Z" fill="#E6E6E6"/>
<path d="M33.4962 83.3356C33.1789 83.2201 32.8134 83.4208 32.6815 83.783C32.5497 84.1452 32.7007 84.534 33.018 84.6495L44.6936 88.899C45.0109 89.0145 45.3764 88.8138 45.5082 88.4516C45.6401 88.0894 45.4891 87.7006 45.1718 87.5851L33.4962 83.3356Z" fill="#E6E6E6"/>
<path d="M73.052 53C73.052 59.5389 67.5286 64.85 60.702 64.85C53.8755 64.85 48.352 59.5389 48.352 53C48.352 46.4611 53.8755 41.15 60.702 41.15C67.5286 41.15 73.052 46.4611 73.052 53Z" fill="#FD7E14" stroke="black" stroke-width="0.3"/>
<path d="M55.8567 54.2069L56.2419 53.1909L63.4567 47.6796L64.2009 47.9397L63.6042 49.5136L63.1013 49.3379L57.65 53.5024L57.6198 53.5821L63.7144 55.7116L63.2989 56.8074L55.8567 54.2069ZM59.9111 57.9927L60.8213 55.5919L61.0007 55.1188L63.7785 47.7921L64.9652 48.2067L61.0978 58.4073L59.9111 57.9927Z" fill="white"/>
<defs>
<filter id="filter0_d_3_150" x="75.6818" y="47.2784" width="62.4148" height="85" filterUnits="userSpaceOnUse" color-interpolation-filters="sRGB">
<feFlood flood-opacity="0" result="BackgroundImageFix"/>
<feColorMatrix in="SourceAlpha" type="matrix" values="0 0 0 0 0 0 0 0 0 0 0 0 0 0 0 0 0 0 127 0" result="hardAlpha"/>
<feOffset dx="2" dy="2"/>
<feGaussianBlur stdDeviation="2.5"/>
<feComposite in2="hardAlpha" operator="out"/>
<feColorMatrix type="matrix" values="0 0 0 0 0 0 0 0 0 0 0 0 0 0 0 0 0 0 0.25 0"/>
<feBlend mode="normal" in2="BackgroundImageFix" result="effect1_dropShadow_3_150"/>
<feBlend mode="normal" in="SourceGraphic" in2="effect1_dropShadow_3_150" result="shape"/>
</filter>
</defs>
</svg>
